<?xml version="1.0" encoding="UTF-8" standalone="no" ?>
<!DOCTYPE svg PUBLIC "-//W3C//DTD SVG 1.1//EN" "http://www.w3.org/Graphics/SVG/1.1/DTD/svg11.dtd">
<svg xmlns="http://www.w3.org/2000/svg" xmlns:xlink="http://www.w3.org/1999/xlink" version="1.1" width="500" height="500" viewBox="0 0 500 500" xml:space="preserve">
<desc>Created with Fabric.js 4.6.0</desc>
<defs>
</defs>
<g transform="matrix(0 1 -1 0 250 250)" id="JqLDL6qNT44p09WKGkX-F"  >
<path style="stroke: none; stroke-width: 1; stroke-dasharray: none; stroke-linecap: butt; stroke-dashoffset: 0; stroke-linejoin: miter; stroke-miterlimit: 4; fill: rgb(0,0,0); fill-rule: nonzero; opacity: 1;" vector-effect="non-scaling-stroke"  transform=" translate(-180, -150)" d="M 344.17916 165.25283 C 335.40476 165.25283 328.58276 158.83783 328.57796 150.58083 C 328.57196000000005 142.33783 335.46956 135.70683 344.08436 135.67583 C 352.73036 135.64382999999998 360.02276 142.50583 359.99996 150.64382999999998 C 359.97476 158.75082999999998 352.93556 165.25283 344.18036 165.25182999999998 z M 295.38008 210.91374 C 304.01768000000004 210.96774 311.32928000000004 204.11973999999998 311.32928000000004 195.97974 C 311.32808000000006 187.87774 304.29008000000005 181.35074 295.54568000000006 181.33874 C 286.7652800000001 181.32774 279.9264800000001 187.73174 279.90968000000004 195.97674 C 279.89288000000005 204.22874000000002 286.76168 210.86074000000002 295.38008 210.91474 z M 295.48928 165.10083 C 304.14368 165.08483 311.40728 158.19183 311.33168 150.06483 C 311.25728 141.94883 304.20968 135.50083 295.44008 135.52383 C 286.68728000000004 135.54683 279.89288000000005 141.99683000000002 279.91208 150.26583 C 279.93128 158.49183 286.88768 165.11683 295.48928 165.10083 z M 280.07408 104.46392 C 280.15088 112.62392 287.51167999999996 119.41592 296.13728 119.28792 C 304.77488 119.15992 311.54767999999996 112.52492 311.49248 104.24392 C 311.43608 96.02392 304.54568 89.66692 295.74128 89.71392 C 287.02448000000004 89.76092 279.99728000000005 96.37592000000001 280.07288 104.46192 z M 286.83128 173.06083 C 286.79287999999997 164.84783000000002 279.79208 158.22683 271.19888 158.27883 C 262.53008 158.33083 255.30007999999998 165.23983 255.41287999999997 173.36583 C 255.52567999999997 181.49383 262.57088 187.89482999999998 271.35848 187.85383 C 280.10048 187.81283 286.86848 181.34283 286.83128 173.06183 z M 319.97396 158.73683 C 311.20196 158.71283 304.15796 165.15783 304.07995999999997 173.27383 C 304.00316 181.40083 311.26556 188.29483 319.91995999999995 188.31183000000001 C 328.52155999999997 188.32983000000002 335.4791599999999 181.70483000000002 335.49835999999993 173.47883000000002 C 335.5199599999999 165.20983 328.7291599999999 158.76083000000003 319.97275999999994 158.73683000000003 z M 287.32088 127.41383 C 287.33288 119.27383 280.02608 112.42083000000001 271.38488 112.46483 C 262.76888 112.50983000000001 255.88928 119.13983 255.90128 127.38883000000001 C 255.91328000000001 135.63883 262.74488 142.04683 271.52288 142.04083 C 280.27207999999996 142.03483 287.31007999999997 135.51883 287.32088 127.41383 z M 319.94876 142.49983 C 328.57796 142.61283 335.92676 135.80983 335.98796 127.65083 C 336.04796 119.56083 329.02076 112.96383 320.29555999999997 112.92483 C 311.49476 112.88583 304.61515999999995 119.25083 304.56836 127.47783 C 304.52155999999997 135.75283 311.31356 142.38583 319.94756 142.49883 z M 287.28128 81.43192 C 287.28128 73.55692 279.78128 66.57292000000001 271.44968 66.69092 C 262.76168 66.81392000000001 255.91208 73.39092000000001 255.92888 81.59692000000001 C 255.94567999999998 89.83192000000001 262.82528 96.23792000000002 271.61647999999997 96.20192000000002 C 280.28527999999994 96.16692000000002 287.28128 89.57092000000002 287.28128 81.43092000000001 z M 231.3074 195.97874 C 231.2954 204.07173999999998 238.403 210.79574 246.9698 210.79973999999999 C 255.2678 210.80174 262.5446 203.95173999999997 262.5434 196.13873999999998 C 262.541 188.07773999999998 255.39620000000002 181.38773999999998 246.7958 181.39774 C 238.3274 181.40774 231.31820000000002 188.00674 231.3074 195.97874 z M 231.3074 150.08383 C 231.257 158.18583 238.2806 164.90883 246.881 164.98783 C 255.1514 165.06483 262.463 158.25983 262.5422 150.41083 C 262.62379999999996 142.38483 255.47179999999997 135.61483 246.88459999999998 135.58783 C 238.40659999999997 135.56083 231.3566 142.12082999999998 231.30739999999997 150.08483 z M 231.5246 104.47392 C 231.4838 112.27292000000001 238.7378 119.13992 247.0538 119.17592 C 255.6002 119.21292000000001 262.751 112.48492 262.75939999999997 104.39692000000001 C 262.76899999999995 96.42192000000001 255.77779999999996 89.80392 247.31659999999997 89.77492000000001 C 238.71139999999997 89.74592000000001 231.56659999999997 96.39492000000001 231.52459999999996 104.47392 z M 271.16168 233.53074 C 279.33488 233.60174 286.53607999999997 226.97474 286.68728 219.24174000000002 C 286.84567999999996 211.19774 280.00088 204.59474000000003 271.44128 204.53374000000002 C 262.66688 204.47174 255.93488000000002 210.66674000000003 255.88448 218.85074000000003 C 255.83408 226.98574000000002 262.56728 233.45474000000002 271.16048 233.53074000000004 z M 262.53248 58.83692 C 262.66088 50.98392 255.52088000000003 44.19292 247.11608 44.17592 C 238.89608 44.15792 231.90848 50.84992 231.96728000000002 58.682919999999996 C 232.02728000000002 66.61092 238.85288000000003 72.96592 247.28768000000002 72.94892 C 255.46328000000003 72.93092 262.40888 66.50192 262.53368 58.83592 z M 237.9698 127.36083 C 238.05499999999998 119.88283000000001 231.167 113.25683000000001 223.1594 113.11283 C 214.91060000000002 112.96383 207.96620000000001 119.34583 207.9086 127.12683 C 207.8486 135.12483 214.3238 141.35583 222.7502 141.40783 C 231.08780000000002 141.45982999999998 237.881 135.18883 237.9686 127.36082999999999 z M 237.491 172.98583 C 237.45020000000002 165.19283 230.55020000000002 158.80983 222.2906 158.92283 C 214.2878 159.03183 207.3794 165.63383000000002 207.4298 173.12383 C 207.4814 180.94383 214.2722 187.25483 222.5978 187.21983 C 231.0302 187.18483 237.5342 180.96783 237.491 172.98483 z M 237.9686 81.41892 C 237.9554 73.91092 231.0098 67.34891999999999 223.0226 67.29892 C 214.74380000000002 67.24691999999999 207.91940000000002 73.63292 207.9086 81.44391999999999 C 207.8954 89.40991999999999 214.4378 95.58991999999999 222.8882 95.59591999999999 C 231.197 95.60292 237.983 89.22391999999999 237.9686 81.41991999999999 z M 237.4526 219.02674 C 237.4658 211.27774 230.65939999999998 204.82773999999998 222.4562 204.81274 C 214.6286 204.79873999999998 207.4934 211.52074 207.515 218.88674 C 207.53779999999998 226.60474 214.39579999999998 233.01174 222.623 232.99574 C 230.7638 232.98074000000003 237.4406 226.69074 237.4526 219.02674000000002 z M 247.1414 227.93374 C 239.0918 227.79874 232.175 234.16874 232.07420000000002 241.81074 C 231.97580000000002 249.25074 238.7066 255.59274000000002 246.75140000000002 255.63974000000002 C 254.9798 255.68974000000003 261.4466 249.73274 261.5102 242.04874 C 261.5738 234.41374000000002 255.1118 228.06674 247.1414 227.93274000000002 z M 237.3782 35.64202 C 237.2858 28.21702 230.6942 22.059020000000004 222.815 22.04502 C 214.865 22.029020000000003 208.511 28.11702 208.5122 35.74702 C 208.51340000000002 43.36802 214.81820000000002 49.25502 222.93980000000002 49.21602 C 231.0242 49.17702 237.4694 43.11802 237.377 35.64202 z M 184.19672 104.17892 C 184.04672 111.50892 190.61072 117.80892 198.50072 117.91592 C 206.09432 118.01792 212.71712 111.80492 212.78192 104.51492 C 212.84672 97.15392 206.51792 91.07292000000001 198.72392000000002 91.00892 C 190.94312000000002 90.94592 184.34192000000002 96.92992000000001 184.19552000000002 104.17992000000001 z M 198.66512 45.22092 C 190.96712 45.11692 184.38392 51.21792 184.26512 58.563919999999996 C 184.15112 65.60392 190.64192 71.86892 198.22711999999999 72.03792 C 205.91431999999998 72.20992 212.67031999999998 66.06092 212.75552 58.81892 C 212.84071999999998 51.48192 206.46151999999998 45.325919999999996 198.66631999999998 45.22192 z M 198.35432 163.66083 C 205.89272 163.60983000000002 212.45672 157.40883 212.46632 150.32783 C 212.47592 143.02383 205.91792 136.81783000000001 198.21752 136.84283 C 190.42832 136.86883 183.97472000000002 142.96483 183.97832 150.29683 C 183.97952 157.54483 190.61432 163.71183 198.35551999999998 163.65883 z M 198.41432 209.47174 C 205.97552000000002 209.37174000000002 212.50472 203.14874 212.46632 196.08174000000002 C 212.42432 188.76374 205.85312 182.59774000000002 198.15632 182.65574000000004 C 190.36472 182.71274000000003 183.94232 188.83474000000004 183.97711999999999 196.16874000000004 C 184.01312 203.41274000000004 190.69951999999998 209.57474000000005 198.41431999999998 209.47174000000004 z M 198.28712 228.49774 C 190.65992 228.40673999999999 183.92672 234.73474 184.00951999999998 241.91574 C 184.09471999999997 249.19574 190.37192 255.05074 198.10951999999997 255.06374 C 206.25151999999997 255.07873999999998 212.24191999999996 249.44974 212.23351999999997 241.79074 C 212.22511999999998 234.50174 206.02471999999997 228.58974 198.28591999999998 228.49774 z M 222.4574 277.88265 C 230.0786 277.88065 236.5514 271.74765 236.4734 264.60165 C 236.3954 257.57365 229.9826 251.66565 222.4478 251.67965 C 214.9658 251.69465 208.601 257.72465 208.637 264.76765 C 208.673 271.85865 215.0234 277.88465 222.4598 277.88165 z M 184.85192 12.86501 C 184.99352000000002 19.84001 191.21312 25.64401 198.58112 25.679009999999998 C 205.89392 25.71401 212.17952 19.72001 212.12672 12.762009999999998 C 212.07392000000002 5.7760099999999985 205.87352 -0.008990000000002496 198.44792 0.000009999999997845066 C 191.05712 0.010009999999997845 184.71272000000002 6.012009999999997 184.85192 12.865009999999998 z M 173.86472 185.80174 C 180.88592 185.86374 187.17752000000002 180.05974 187.31552 173.39374 C 187.45471999999998 166.69674 181.46671999999998 160.78274000000002 174.37351999999998 160.61374 C 166.78351999999998 160.43374 160.73911999999999 165.74174 160.55432 172.75474 C 160.36712 179.78974 166.43312 185.73574 173.86471999999998 185.80174 z M 160.74404 127.37283 C 160.71524000000002 133.99283 166.90604000000002 139.89583 173.97524 139.99083 C 181.23044000000002 140.08783 187.47284000000002 134.30583 187.50884000000002 127.45682999999998 C 187.54724000000002 120.35782999999998 181.74884000000003 114.82982999999999 174.23444 114.79882999999998 C 166.93244 114.76682999999998 160.77404 120.50882999999997 160.74404 127.37382999999998 z M 198.22232 299.99965 C 205.12472 300.05865 211.30832 294.26764999999995 211.29872 287.75365 C 211.28792 281.00765 205.53632 275.53565 198.36872 275.45365 C 191.21432 275.37165 185.29352 280.77965 185.22032 287.46164999999996 C 185.14352 294.37764999999996 190.90952 299.93764999999996 198.22111999999998 299.99965 z M 149.95724 138.61183 C 143.19284000000002 138.59183 137.43044 143.83883 137.36564 150.07683 C 137.29844 156.46383 143.10284000000001 161.97683 149.91044000000002 161.99483 C 156.51884 162.01283 162.18524000000002 156.60383000000002 162.20804 150.25483 C 162.23204 143.74483 156.85124000000002 138.63183 149.95604 138.61183 z M 149.29364 207.80774 C 156.06644 207.92274 161.95124 202.49874 162.02564 196.06974 C 162.10004 189.85974 156.36284 184.47374 149.62724 184.42674 C 142.69844 184.37673999999998 137.23364 189.41273999999999 137.18564 195.88974 C 137.13764 202.26873999999998 142.65044 207.69374 149.29364 207.80774 z M 149.76884 92.80192 C 143.03204000000002 92.84891999999999 137.29724000000002 98.23392 137.36804 104.44391999999999 C 137.44244 110.87292 143.32484 116.29791999999999 150.09644 116.18391999999999 C 156.74084 116.07191999999999 162.25364 110.64691999999998 162.20804 104.26791999999999 C 162.16004 97.79091999999999 156.69524 92.75392 149.76764 92.80291999999999 z M 113.81684 173.02583 C 113.75684 178.99483 118.95524 183.97683 125.26004 183.99383 C 131.30324000000002 184.01083 136.68404 178.98383 136.73084 173.28283 C 136.77644 167.48683 131.63084 162.51882999999998 125.49164 162.42783 C 118.91924 162.33083 113.87804 166.90683 113.81804 173.02583 z M 113.99924 127.56183 C 114.11324 133.28283 119.53244 138.25983 125.56244 138.18183 C 131.76044 138.09983 136.88204 133.24683 136.91084 127.43082999999999 C 136.93964 121.27082999999999 131.99804 116.60282999999998 125.46284 116.61482999999998 C 119.15204 116.62682999999998 113.88164 121.66082999999999 113.99924 127.56182999999999 z M 90.80696 104.70492 C 90.94856 109.75292 95.73776000000001 114.18492 101.06936 114.20192 C 106.81616 114.22092 111.57416 109.72292 111.53576000000001 104.31092 C 111.49856000000001 99.09891999999999 106.67696000000001 94.63592 101.13896000000001 94.68992 C 95.38256000000001 94.74592 90.65696000000001 99.32692 90.80696 104.70592 z M 111.53456 150.14983 C 111.51295999999999 144.93783000000002 106.70456 140.46283 101.16656 140.50083 C 95.54336 140.53983 90.91376 144.86783 90.80096 150.18583 C 90.69416 155.29183 95.57336000000001 159.97583 101.03696000000001 160.01383 C 106.77776 160.05483 111.55496000000001 155.56383000000002 111.53216 150.14983 z M 100.75016 186.31074 C 95.21336 186.34474 90.47095999999999 190.88274 90.52496 196.09374 C 90.58135999999999 201.39074 95.18816 205.73874 100.83655999999999 205.82574 C 106.26415999999999 205.90874 111.23096 201.30374 111.25375999999999 196.16674 C 111.27655999999999 190.76074 106.49575999999999 186.27574 100.75135999999999 186.31074 z M 86.06696 127.32483 C 86.11735999999999 122.82583000000001 81.76256 118.68083 76.96736 118.66283 C 71.91296 118.64383 67.71415999999999 122.66383 67.76696 127.47382999999999 C 67.81855999999999 132.25283 71.83136 135.93883 76.92775999999999 135.88683 C 81.89576 135.83483 86.01535999999999 131.97683 86.06815999999999 127.32483 z M 85.58336 173.05883 C 85.56416 168.45083 81.37016 164.55783 76.44296 164.57383 C 71.63336 164.58882999999997 67.33376 168.70683 67.42736 173.20882999999998 C 67.52695999999999 177.87482999999997 71.71136 181.72983 76.60495999999999 181.66282999999999 C 81.60055999999999 181.59283 85.60256 177.75582999999997 85.58336 173.05883 z M 51.98348 188.80274 C 48.11108 188.88574 44.57828 192.21874 44.50148 195.85974 C 44.41628 199.86174 47.95388 203.22073999999998 52.25708 203.22874 C 56.46428 203.23574 59.847080000000005 200.04574 59.829080000000005 196.08574 C 59.81228 192.04173999999998 56.22428000000001 188.71074 51.98228 188.80174 z M 60.22028 104.21392 C 60.12668 100.56692 56.58428 97.24792000000001 52.713080000000005 97.17892 C 48.468680000000006 97.10392 44.896280000000004 100.44192000000001 44.892680000000006 104.48792 C 44.88908000000001 108.44492 48.282680000000006 111.62392 52.491080000000004 111.60592 C 56.79308 111.58792 60.322280000000006 108.21092 60.22028 104.21292 z M 60.21908 150.00183 C 60.10988 146.35183 56.559079999999994 143.04483000000002 52.69028 142.98883 C 48.44348 142.92783 44.88548 146.27483 44.89508 150.32283 C 44.90348 154.28083 48.30788 157.44883000000002 52.51748 157.41683 C 56.82188 157.38483 60.34028 153.99783 60.22148 150.00183 z M 33.6488 173.03183 C 33.5612 170.03883000000002 30.8564 167.59283000000002 27.7472 167.69183 C 24.5552 167.79383 22.0292 170.26583000000002 22.064 173.25483 C 22.0964 176.17483 24.8276 178.63683 27.9836 178.59183 C 31.1072 178.54683 33.734 175.96783 33.6488 173.03182999999999 z M 28.15268 121.87483 C 25.04708 121.85983 22.40108 124.38783000000001 22.40228 127.36583 C 22.403480000000002 130.30083 25.10948 132.81483 28.22708 132.77783 C 31.40108 132.73982999999998 34.04108 130.22583 33.98588 127.29782999999999 C 33.92828 124.30382999999999 31.332680000000003 121.89083 28.15388 121.87482999999999 z M 7.3784 104.45792 C 7.4348 102.68192 5.8364 101.11592 3.9512 101.10092 C 2.0792 101.08492 0.3992 102.60692 0.36439999999999984 104.34692 C 0.32959999999999984 106.11192 1.9243999999999999 107.66592 3.8108 107.70591999999999 C 5.6708 107.74391999999999 7.3232 106.23992 7.3808 104.45891999999999 z M 0.36692 150.07583 C 0.28412000000000004 151.83883 1.83452 153.42783 3.72092 153.51283 C 5.57732 153.59683 7.26452 152.13683 7.37252 150.35183 C 7.480519999999999 148.57783 5.92652 146.97683 4.03772 146.91483 C 2.17172 146.85282999999998 0.44612000000000007 148.33883 0.36572000000000005 150.07783 z M 7.0124 196.17474 C 7.1012 194.42574000000002 5.5520000000000005 192.83974 3.6536000000000004 192.73874 C 1.7684000000000004 192.63674 0.06680000000000019 194.09974 0.002000000000000224 195.87774000000002 C -0.06399999999999978 197.63274 1.5152000000000003 199.25674 3.3632000000000004 199.33274000000003 C 5.235200000000001 199.41074000000003 6.9236 197.94974000000002 7.014800000000001 196.17574000000002 z" stroke-linecap="round" />
</g>
</svg>